<svg width="44" height="93" viewBox="0 0 44 93" fill="none" xmlns="http://www.w3.org/2000/svg">
<path d="M0.000167847 22.6091C0.000167847 28.6055 2.31559 34.3564 6.43707 38.5965C10.5586 42.8367 16.1485 45.2187 21.9771 45.2187C27.8058 45.2188 33.3957 42.8367 37.5172 38.5965C41.6387 34.3564 43.9541 28.6055 43.9541 22.6091L21.9771 22.6091L0.000167847 22.6091Z" fill="#09F104"/>
<path d="M43.9539 70.1331C43.9539 64.1366 41.6385 58.3858 37.517 54.1457C33.3955 49.9055 27.8056 47.5234 21.977 47.5234C16.1483 47.5234 10.5584 49.9055 6.43691 54.1457C2.31543 58.3858 8.80103e-07 64.1366 0 70.1331L21.977 70.1331H43.9539Z" fill="white"/>
</svg>
