<svg width="100" height="211" viewBox="0 0 100 211" fill="none" xmlns="http://www.w3.org/2000/svg">
<path d="M0 51.4395C0 65.0821 5.26785 78.1659 14.6447 87.8126C24.0215 97.4594 36.7392 102.879 50 102.879C63.2608 102.879 75.9785 97.4594 85.3553 87.8126C94.7322 78.1659 100 65.0821 100 51.4395L50 51.4395L0 51.4395Z" fill="#09F104"/>
<path d="M100 159.561C100 145.918 94.7322 132.834 85.3553 123.187C75.9785 113.541 63.2608 108.121 50 108.121C36.7392 108.121 24.0215 113.541 14.6447 123.187C5.26785 132.834 2.00233e-06 145.918 0 159.561L50 159.561H100Z" fill="black"/>
</svg>
